<svg width="28" height="28" viewBox="0 0 400 400" fill="none" xmlns="http://www.w3.org/2000/svg">
<path d="M400 200C400 310.457 310.457 400 200 400C89.5431 400 0 310.457 0 200C0 89.5431 89.5431 0 200 0C310.457 0 400 89.5431 400 200Z" fill="#1717CC"/>
<path fill-rule="evenodd" clip-rule="evenodd" d="M222.202 254.338V71.7648C222.202 70.0566 221.561 68.7763 220.28 67.9221C218.999 66.6409 217.29 66 215.155 66H178V264.588H208.749C212.593 264.588 215.796 263.52 218.358 261.385C221.348 259.25 222.629 256.9 222.202 254.338ZM222.202 333.133L222.842 301.744C222.842 300.89 222.629 299.822 222.202 298.541V297.899C221.775 297.472 221.561 297.046 221.561 296.619V295.977C220.28 294.269 218.572 292.775 216.436 291.493C216.009 291.066 215.582 290.852 215.155 290.852C213.874 290.425 212.379 290.212 210.671 290.212C210.671 289.785 210.457 289.571 210.03 289.571H178V333.133H222.202Z" fill="white"/>
</svg>
